<?xml version="1.0" standalone="no"?>
<!DOCTYPE svg PUBLIC "-//W3C//DTD SVG 20010904//EN"
 "http://www.w3.org/TR/2001/REC-SVG-20010904/DTD/svg10.dtd">
<svg version="1.0" xmlns="http://www.w3.org/2000/svg"
 width="260.000000pt" height="260.000000pt" viewBox="0 0 260.000000 260.000000"
 preserveAspectRatio="xMidYMid meet">
<metadata>
Created by potrace 1.14, written by Peter Selinger 2001-2017
</metadata>
<g transform="translate(0.000000,260.000000) scale(0.100000,-0.100000)"
fill="#000000" stroke="none">
<path d="M1135 2565 c-474 -77 -871 -415 -1025 -872 -87 -260 -81 -563 15
-830 125 -343 401 -626 745 -761 187 -74 440 -101 638 -68 527 88 947 493
1051 1014 41 200 36 373 -14 565 -123 473 -506 838 -990 942 -104 23 -312 27
-420 10z m394 -205 c410 -83 731 -393 831 -800 30 -125 37 -310 16 -438 -39
-230 -127 -410 -282 -572 -210 -219 -468 -331 -769 -332 -527 -3 -951 342
-1062 862 -24 113 -24 324 0 438 79 374 338 674 692 801 172 62 395 78 574 41z"/>
<path d="M807 1774 c-4 -4 -7 -172 -7 -374 0 -289 -3 -370 -13 -384 -19 -26
-108 -34 -141 -12 -24 15 -25 22 -28 119 l-3 102 -122 3 -123 3 0 -161 c0
-143 2 -165 21 -206 12 -25 36 -55 53 -68 62 -45 91 -51 271 -51 191 0 221 8
282 79 57 64 58 73 58 531 l0 420 -121 3 c-66 1 -123 -1 -127 -4z m156 -471
l67 -6 0 -60 0 -60 -52 7 c-29 3 -72 6 -95 6 l-42 0 -7 45 c-11 79 -7 81 129
68z"/>
<path d="M1180 1270 l0 -510 105 0 105 0 2 293 3 292 39 -265 c21 -146 40
-277 43 -292 l6 -28 167 0 168 0 6 33 c3 17 22 145 42 282 20 138 38 252 40
254 2 2 4 -125 4 -282 l0 -287 110 0 110 0 0 510 0 510 -185 0 c-183 0 -185 0
-190 -22 -2 -13 -25 -162 -50 -333 -26 -170 -48 -311 -49 -312 -2 -2 -18 97
-36 220 -18 122 -40 272 -49 332 l-17 110 -187 3 -187 2 0 -510z m182 48 c2
-13 1 -40 -1 -60 l-3 -38 -58 0 c-32 0 -70 4 -84 10 -23 8 -26 15 -26 60 l0
50 84 0 c80 0 85 -1 88 -22z m228 -8 c5 -8 10 -37 10 -64 0 -40 -3 -47 -16
-42 -9 3 -42 6 -74 6 -64 0 -64 0 -76 75 l-7 47 77 -4 c54 -2 80 -8 86 -18z
m280 -10 c0 -5 -5 -32 -11 -60 l-11 -50 -46 0 c-83 0 -92 6 -92 59 0 26 3 51
7 54 10 11 153 8 153 -3z m238 -34 c2 -16 1 -43 -2 -60 l-6 -31 -77 5 -78 5
-3 58 -3 58 83 -3 83 -3 3 -29z"/>
</g>
</svg>
